<svg viewBox="0 0 40 40" fill="none" xmlns="http://www.w3.org/2000/svg">
  <rect width="40" height="40" fill="#1a1208"/>
  <path d="M20 6 C20 6 14 12 14 18 C14 21.3 16.7 24 20 24 C23.3 24 26 21.3 26 18 C26 12 20 6 20 6Z" fill="#c9a96e" opacity="0.9"/>
  <path d="M10 14 C10 14 8 20 12 24 C14 26 17 26.5 19 25 C17 23 15.5 20.5 15.5 18 C15.5 16 16 14 17 12.5 C14 12 10 14 10 14Z" fill="#c9a96e" opacity="0.6"/>
  <path d="M30 14 C30 14 26 12 23 12.5 C24 14 24.5 16 24.5 18 C24.5 20.5 23 23 21 25 C23 26.5 26 26 28 24 C32 20 30 14 30 14Z" fill="#c9a96e" opacity="0.6"/>
  <path d="M20 24 C20 24 20 30 20 34" stroke="#c9a96e" stroke-width="1.5" stroke-linecap="round" opacity="0.5"/>
  <path d="M16 30 C16 30 18 31 20 34 C22 31 24 30 24 30" stroke="#c9a96e" stroke-width="1.2" stroke-linecap="round" opacity="0.4"/>
</svg>
